<?xml version="1.0" standalone="no"?>
<!DOCTYPE svg PUBLIC "-//W3C//DTD SVG 20010904//EN"
 "http://www.w3.org/TR/2001/REC-SVG-20010904/DTD/svg10.dtd">
<svg version="1.0" xmlns="http://www.w3.org/2000/svg"
 width="300.000000pt" height="85.000000pt" viewBox="0 0 300.000000 85.000000"
 preserveAspectRatio="xMidYMid meet">
<metadata>
Created by potrace 1.10, written by Peter Selinger 2001-2011
</metadata>
<g transform="translate(0.000000,85.000000) scale(0.100000,-0.100000)"
fill="#000000" stroke="none">
<path d="M1334 805 c-7 -19 -14 -41 -14 -49 0 -21 -43 -48 -72 -46 -36 3 -48
1 -48 -10 0 -5 18 -10 40 -10 22 0 40 -4 40 -10 0 -5 -11 -43 -25 -84 -14 -41
-25 -91 -25 -110 0 -30 -6 -40 -39 -64 -45 -33 -115 -42 -125 -17 -3 8 -1 17
5 20 5 4 7 11 4 16 -4 5 2 22 11 39 19 31 15 46 -11 37 -8 -4 -20 -27 -27 -52
-9 -34 -21 -50 -44 -64 -17 -10 -43 -26 -58 -36 l-28 -18 8 39 c4 21 13 53 21
71 17 42 17 63 -2 63 -8 0 -19 -17 -26 -41 -8 -24 -24 -48 -42 -61 -36 -26
-106 -35 -118 -16 -10 16 -1 58 17 79 8 8 14 21 14 27 0 23 -24 11 -58 -28
-37 -44 -104 -82 -128 -73 -23 9 -16 47 16 83 17 18 30 36 30 38 0 2 -18 2
-39 0 -44 -4 -67 18 -56 53 10 29 -23 24 -37 -6 -6 -14 -15 -25 -20 -25 -4 0
-8 -6 -8 -14 0 -20 -70 -96 -99 -108 -39 -14 -79 0 -97 34 -14 27 -14 31 0 47
9 10 16 20 16 24 0 3 12 28 28 54 28 49 52 110 52 131 0 21 -26 13 -55 -18
-26 -28 -74 -144 -75 -182 -1 -53 -171 -126 -216 -94 -15 11 -14 17 10 63 39
78 78 131 149 206 64 66 92 81 103 52 8 -21 24 -19 24 4 0 27 -26 44 -54 37
-29 -7 -156 -113 -156 -130 0 -7 -11 -19 -25 -26 -14 -7 -25 -21 -25 -30 0
-10 -7 -23 -16 -30 -22 -19 -44 -77 -44 -116 0 -51 32 -78 82 -70 21 4 47 10
56 15 9 5 28 14 42 20 14 6 33 16 42 23 15 11 22 7 52 -25 34 -38 35 -38 70
-23 32 14 37 13 45 -2 9 -16 11 -15 25 3 8 11 28 35 44 53 17 19 37 47 45 64
l14 30 22 -31 c16 -22 20 -35 13 -47 -5 -9 -7 -26 -4 -38 14 -59 77 -75 128
-31 33 28 44 31 44 12 0 -43 68 -55 128 -24 36 20 36 19 20 -35 -8 -28 -18
-40 -37 -45 -14 -3 -31 -11 -37 -17 -6 -6 -30 -27 -53 -46 -47 -39 -71 -82
-76 -135 -5 -47 35 -97 74 -93 22 3 33 17 68 88 24 47 43 93 43 102 0 9 9 37
19 61 15 35 31 52 68 73 26 15 57 36 69 46 20 18 21 18 39 -1 24 -27 78 -22
132 12 38 24 42 25 47 9 3 -9 15 -23 25 -29 39 -24 143 32 192 104 37 54 25
55 -26 3 -21 -22 -43 -40 -49 -40 -5 0 -24 -11 -42 -25 -39 -30 -38 -29 -58
-9 -26 25 -20 99 15 189 17 44 32 81 34 83 3 3 21 6 138 17 46 5 67 11 67 20
0 10 -19 12 -90 9 -71 -4 -90 -2 -90 8 0 8 4 18 9 24 5 5 13 26 16 47 6 31 4
37 -9 37 -10 0 -23 -15 -32 -35z m-474 -530 c0 -3 -7 -17 -16 -31 -9 -13 -14
-27 -10 -31 3 -4 0 -16 -7 -27 -8 -12 -19 -38 -26 -58 -7 -21 -17 -38 -22 -38
-5 0 -9 -7 -9 -15 0 -24 -29 -29 -50 -10 -11 10 -20 28 -20 39 0 38 78 146
106 146 6 0 17 7 24 15 12 15 30 20 30 10z"/>
<path d="M2315 810 c-8 -16 -15 -36 -15 -45 0 -25 -39 -57 -68 -55 -47 3 -63
0 -57 -10 3 -5 24 -10 46 -10 21 0 39 -3 39 -7 0 -5 -11 -43 -25 -85 -41 -130
-38 -213 9 -231 17 -7 70 9 104 31 20 13 22 13 16 -2 -18 -48 43 14 101 101
l27 43 18 -23 c14 -18 17 -34 13 -65 -4 -32 -1 -47 12 -62 21 -23 77 -27 97
-7 7 8 23 19 35 25 18 10 23 9 28 -7 12 -38 82 -31 113 11 17 23 29 23 37 0 6
-21 45 -42 75 -42 11 0 34 14 52 31 l33 30 -40 -18 c-22 -11 -50 -17 -63 -15
-32 5 -49 45 -35 82 12 33 -4 131 -23 137 -17 6 -87 -55 -115 -100 -27 -43
-60 -71 -116 -100 -64 -33 -84 8 -33 66 17 19 30 38 30 42 0 3 -15 5 -34 4
-43 -4 -65 13 -58 46 6 36 -19 32 -40 -5 -10 -17 -18 -32 -18 -35 -1 -8 -97
-95 -105 -95 -5 0 -23 -11 -41 -25 -78 -60 -100 33 -43 180 16 44 32 81 34 83
3 3 20 5 138 17 46 5 67 11 67 20 0 10 -19 12 -90 9 -71 -4 -90 -2 -90 8 0 8
4 18 9 24 5 5 12 26 15 47 6 29 4 37 -8 37 -9 0 -22 -13 -31 -30z m525 -249
c-5 -11 -10 -37 -10 -59 0 -43 -24 -73 -74 -92 -33 -12 -31 -13 -40 18 -5 13
-3 22 3 22 6 0 11 5 11 11 0 11 30 55 67 95 28 30 59 34 43 5z"/>
<path d="M1708 780 c-35 -19 -68 -57 -96 -110 -38 -71 -66 -245 -44 -276 34
-51 86 -24 125 64 26 58 28 59 73 66 97 13 151 73 139 153 -15 99 -112 150
-197 103z m119 -19 c1 -1 10 -16 22 -34 53 -86 24 -148 -81 -173 -33 -7 -36 7
-12 55 10 21 14 44 10 66 -7 35 -35 57 -37 27 -3 -60 -18 -130 -30 -138 -6 -3
-19 2 -30 12 -27 24 -44 6 -23 -24 8 -12 22 -22 30 -22 8 0 14 -2 14 -5 0 -12
-66 -125 -73 -125 -30 0 -19 156 17 241 20 46 61 101 89 116 16 9 82 12 104 4z"/>
<path d="M812 668 c-7 -9 -6 -18 4 -32 16 -23 21 -20 26 13 3 27 -14 38 -30
19z"/>
<path d="M910 665 c-9 -11 -11 -22 -4 -32 14 -23 29 -20 32 6 5 32 -11 46 -28
26z"/>
<path d="M1122 668 c-7 -9 -6 -18 4 -32 16 -23 21 -20 26 13 3 27 -14 38 -30
19z"/>
<path d="M1989 578 c-45 -44 -80 -101 -93 -150 -5 -22 -2 -30 19 -44 21 -14
30 -14 54 -4 16 6 37 20 47 31 20 23 34 24 34 4 0 -39 87 -56 126 -25 21 18
17 32 -5 20 -28 -14 -77 -12 -90 4 -14 16 -14 29 -6 101 6 50 -8 94 -31 102
-6 2 -31 -16 -55 -39z m56 -20 c-4 -13 -9 -39 -12 -60 -8 -61 -94 -123 -108
-78 -9 29 82 160 113 160 10 0 12 -6 7 -22z"/>
</g>
</svg>
